<?xml version="1.0" encoding="utf-8"?>
<!-- Generator: Adobe Illustrator 21.0.0, SVG Export Plug-In . SVG Version: 6.00 Build 0)  -->
<svg version="1.1" id="Layer_1" xmlns="http://www.w3.org/2000/svg" xmlns:xlink="http://www.w3.org/1999/xlink" x="0px" y="0px"
	 viewBox="0 0 59.6 59.9" style="enable-background:new 0 0 59.6 59.9;" xml:space="preserve">
<style type="text/css">
	.st0{fill:#FFFFFF;}
	.st1{fill:none;stroke:#AE1F24;stroke-width:0.989;stroke-miterlimit:10;}
	.st2{fill:#AE1F24;}
</style>
<polygon class="st0" points="58.8,59 0.8,59 0.8,38.6 0.8,38.6 0.8,25.6 0.8,25.6 0.8,1 58.8,1 58.8,25.6 58.8,25.6 58.8,38.6 
	58.8,38.6 "/>
<polygon class="st1" points="58.8,59 0.8,59 0.8,38.6 0.8,38.6 0.8,25.7 0.8,25.7 0.8,1 58.8,1 58.8,25.7 58.8,25.7 58.8,38.6 
	58.8,38.6 "/>
<g>
	<g>
		<g>
			<path class="st2" d="M39.9,16.3v-3.5c-2.3,0-4.6,0-6.9,0c-1.9,0-3.9,0-6,0c-2.4,0-4.9,0-7.5,0c0,1.3,0,2.2,0,3.5
				c3,0,7.5,0,10.9,0C33.8,16.3,37,16.3,39.9,16.3z"/>
			<path class="st2" d="M2,2.1v55.8l55.7,0V2.1H2z M4.6,9.5c4.3-0.1,8.4-0.3,13-0.3c0-1.4,0-2.3,0-4.2h1.9c0,1.9,0,2.8,0,4.2
				c2.4,0,4.9,0,7.5,0c1.9,0,3.9,0,6,0c2.4,0,4.7,0,7,0c0-1.4,0-2.3,0-4.2h1.9c0,1.9,0,2.8,0,4.2c4.2,0,8.7,0,13.5,0v3.4
				c-4.1,0.2-8.5,0.3-13.5,0.3c0,1.3,0,2.3,0,3.6c3,0,6.1,0,9.5,0v3.1c-1.7,0.1-3.6-0.1-6.3,0c-1.9,0-3.4,0-4.6,0c-3.4,0-6.7,0-10,0
				c-1.6,0-5,0-7.7,0c-1.9,0-3.4,0-4.7,0c-3.5,0-6.9,0-10.2,0v-3.1c3.4,0,6.6,0,9.5,0v-3.6c-4.3,0-8.6,0-12.8,0V9.5z M50.6,28.6
				c0,1.7,0,3,0,3.8c-5.6,0-12.1,0-19.4,0c0.1-3.2,0.1-6.8,0.1-10.7h1.8c0.1,0.7,0.2,6.5,0.2,6.5c4.2-0.2,11,0.1,15.5,0
				c0,0,0-6,0.2-6c0.1,0,1.5,0,1.7,0C50.7,23.6,50.7,25.7,50.6,28.6z M26.4,22.1c0.2,0,1.9,0,1.9,0s0.1,3.5,0,6.5c0,1.7,0,3,0,3.9
				c-0.6,0-1.1,0-1.7,0c-0.2,0-0.3-3.1-0.3-3.1H11.2c0,0-0.1,3.1-0.3,3.1c-0.6,0-1.3,0-1.9,0C9,29.2,9,25.5,9,21.6h1.8
				c0.1,0.7,0.4-0.5,0.4,3.8c6.9,0,11.7,0,15.2,0C26.3,25.4,26.2,22.1,26.4,22.1z M29.3,54.7c-0.6,0-1.8,0.1-1.8,0.1
				s-11-3.9-17.1-6.8c0,0.9,0.2,7-0.2,7c-0.6,0-1.5,0-2.1,0C8,50.7,8,46.9,8.1,43.6h2c12.9,4.8,12,4.4,16.8,6.6
				c0-0.7,0.4-6.5,0.6-6.5c0.2,0,1.8,0,1.8,0S29.3,51.1,29.3,54.7z M42.2,55c-1.3,0-2.8,0-4.4,0c-1.3,0-3.6,0-7.1,0
				c-0.1-4.3-0.1-8.1,0-11.4l20.9-0.1c0,0.5,0,2,0.1,2.7c0,0.2-18.8,0.5-18.8,0.7c0,1.5,0,2,0,4.3c6.6,0,12,0,16.9,0
				c0-2,0-0.2,0.1-1.2c-0.9,0-2.4,0-4.3,0c-4.2,0.2-7.8,0.2-10.7,0v-1.7c3.1-0.2,5.9-0.2,8.3-0.2c2,0,4.9,0,8.5,0
				c0,3.5,0.1,3,0.1,6.6C47.7,54.9,44.6,55,42.2,55z M56.1,39.6c-2.4,0.1-4.6,0.2-6.6,0.2c-0.4,0-0.9,0-1.5,0
				c-0.1,0-0.3,0.5-0.3,0.5c-0.5,0.1-1.7,0.1-2.4,0c-0.1,0,0.4-0.5,0.3-0.5c-1.4,0-3.2,0-5.2,0c-2.3,0-4.1,0-5.7,0
				c-0.1,0,0.2,0.8,0.1,0.8c-0.4,0.1-1,0.1-1.5,0c-0.1,0-0.6-0.8-0.7-0.8c-0.1,0-0.5,0-0.6,0c-0.8,0-1.5,0-2.3,0c-0.9,0-1.7,0-2.5,0
				c-0.5,0-1,0-1.6,0c-0.1,0-0.5,0.9-0.6,0.9c-0.3,0.1-1.1,0-1.8-0.1c0.2-0.4,0.4-0.8,0.3-0.8c-1.5,0-3.2,0-5.4,0c-2.4,0-4.4,0-6,0
				c-0.1,0,0.1,0.9,0,1.1c0,0.1-1.9,0.1-2.1,0c-0.1-0.6-0.2-1.2-0.2-1.2c-2.2,0-4.4-0.1-6.3-0.2V37c1.8-0.1,6.1-0.2,6.1-0.2
				c0-0.9-0.2-1.7-0.2-1.7l2-0.2c0.3,1,0.4,1.9,0.4,1.9s4.1-0.1,6.3-0.1l6.5,0.1c0.3-0.5,0.7-1.9,0.7-1.9c0.1,0,1.6,0,1.6,0
				c0,0.1-0.1,1-0.4,2c1.6-0.1,3.4-0.1,5.3-0.1c-0.1-0.4-0.4-1.5-0.4-1.6l1.5-0.7c0.3,0.9,0.3,1.3,0.8,2.2c2.8,0,3.5,0,6.6,0l6.5,0
				c0.4-0.4,0.5-0.7,0.7-1.5c0,0,1.6,0.1,1.7,0.2c0,0-0.2,0.8-0.4,1.5c2.3,0,4.7,0,7.2,0V39.6z"/>
		</g>
	</g>
</g>
</svg>
